# Rhino

mtllib huka5.mtl
o STLB_ATF_9_3_0_1241_COLOR____
usemtl New material 002
v -0.2205026025940061 1.484239256969657 1.563322599634463
v 0.2519073684673622 1.484239256969657 1.563322599634463
v -0.2237686691993727 1.484239256969657 1.523906958534675
v 0.255173435072729 1.484239256969657 1.523906958534675
v -0.2205026025940061 1.484239256969657 1.484491317434887
v 0.2519073684673622 1.484239256969657 1.484491317434887
v -0.2107934699607647 1.484239256969657 1.446150835573214
v 0.2421982358341207 1.484239256969657 1.446150835573214
v -0.1949061267895612 1.484239256969657 1.409931338668893
v 0.2263108926629173 1.484239256969657 1.409931338668893
v -0.1732739295624018 1.484239256969657 1.376820789914675
v 0.2046786954357579 1.484239256969657 1.376820789914675
v -0.1464869535561197 1.484239256969657 1.347722375182147
v 0.1778917194294757 1.484239256969657 1.347722375182147
v -0.1152758714746613 1.484239256969657 1.323429809716221
v 0.1466806373480173 1.484239256969657 1.323429809716221
v -0.08049204309282568 1.484239256969657 1.304605761661998
v 0.1118968089661819 1.484239256969657 1.304605761661998
v -0.04308428823742485 1.484239256969657 1.29176364415815
v 0.07448905411078086 1.484239256969657 1.29176364415815
v -0.004072980226883648 1.484239256969657 1.285253808885503
v 0.03547774610023966 1.484239256969657 1.285253808885503
v 0.2421982358341207 1.484239256969657 1.601663081496136
v -0.2107934699607646 1.484239256969657 1.601663081496136
v 0.2263108926629173 1.484239256969657 1.637882578400457
v -0.1949061267895612 1.484239256969657 1.637882578400457
v 0.204678695435758 1.484239256969657 1.670993127154674
v -0.1732739295624018 1.484239256969657 1.670993127154674
v 0.1778917194294757 1.484239256969657 1.700091541887203
v -0.1464869535561196 1.484239256969657 1.700091541887203
v 0.1466806373480174 1.484239256969657 1.724384107353129
v -0.1152758714746612 1.484239256969657 1.724384107353129
v 0.111896808966182 1.484239256969657 1.743208155407352
v -0.08049204309282557 1.484239256969657 1.743208155407352
v 0.07448905411078097 1.484239256969657 1.756050272911199
v -0.04308428823742475 1.484239256969657 1.756050272911199
v 0.03547774610023977 1.484239256969657 1.762560108183847
v -0.004072980226883544 1.484239256969657 1.762560108183847
v -0.2423224637526008 1.462469161320925 1.483039838968405
v -0.2455387648481046 1.462469161320925 1.523906958534675
v -0.2237686691993727 1.484239256969657 1.523906958534675
v -0.2423224637526008 1.462469161320925 1.564774078100945
v -0.2205026025940061 1.484239256969657 1.563322599634463
v -0.2327527243747701 1.462469161320925 1.604634914974353
v -0.2107934699607646 1.484239256969657 1.601663081496136
v -0.2170651906599373 1.462469161320925 1.642507957623471
v -0.1949061267895612 1.484239256969657 1.637882578400457
v -0.1956461525857869 1.462469161320925 1.677460650325068
v -0.1732739295624018 1.484239256969657 1.670993127154674
v -0.1690230165966443 1.462469161320925 1.708632358067997
v -0.1464869535561196 1.484239256969657 1.700091541887203
v -0.1378513088537153 1.462469161320925 1.73525549405714
v -0.1152758714746612 1.484239256969657 1.724384107353129
v -0.1028986161521175 1.462469161320925 1.75667453213129
v -0.08049204309282557 1.484239256969657 1.743208155407352
v -0.06502557350300034 1.462469161320925 1.772362065846123
v -0.04308428823742475 1.484239256969657 1.756050272911199
v -0.02516473662959221 1.462469161320925 1.781931805223954
v -0.004072980226883544 1.484239256969657 1.762560108183847
v 0.01570238293667823 1.462469161320925 1.785148106319457
v 0.03547774610023977 1.484239256969657 1.762560108183847
v 0.05656950250294844 1.462469161320925 1.781931805223954
v 0.07448905411078097 1.484239256969657 1.756050272911199
v 0.09643033937635678 1.462469161320925 1.772362065846123
v 0.111896808966182 1.484239256969657 1.743208155407352
v 0.134303382025474 1.462469161320925 1.75667453213129
v 0.1466806373480174 1.484239256969657 1.724384107353129
v 0.1692560747270714 1.462469161320925 1.73525549405714
v 0.1778917194294757 1.484239256969657 1.700091541887203
v 0.2004277824700004 1.462469161320925 1.708632358067997
v 0.204678695435758 1.484239256969657 1.670993127154674
v 0.2270509184591433 1.462469161320925 1.677460650325068
v 0.2263108926629173 1.484239256969657 1.637882578400457
v 0.2484699565332937 1.462469161320925 1.642507957623471
v 0.2421982358341207 1.484239256969657 1.601663081496136
v 0.2641574902481265 1.462469161320925 1.604634914974353
v 0.2519073684673622 1.484239256969657 1.563322599634463
v 0.2737272296259571 1.462469161320925 1.564774078100945
v 0.255173435072729 1.484239256969657 1.523906958534675
v 0.255173435072729 1.484239256969657 1.523906958534675
v 0.2737272296259571 1.462469161320925 1.564774078100945
v 0.2769435307214609 1.462469161320925 1.523906958534675
v 0.2737272296259571 1.462469161320925 1.483039838968405
v 0.2519073684673622 1.484239256969657 1.484491317434887
v 0.2641574902481265 1.462469161320925 1.443179002094996
v 0.2421982358341207 1.484239256969657 1.446150835573214
v 0.2484699565332936 1.462469161320925 1.405305959445879
v 0.2263108926629173 1.484239256969657 1.409931338668893
v 0.2270509184591433 1.462469161320925 1.370353266744282
v 0.2046786954357579 1.484239256969657 1.376820789914675
v 0.2004277824700003 1.462469161320925 1.339181559001353
v 0.2046786954357579 1.484239256969657 1.376820789914675
v 0.1778917194294757 1.484239256969657 1.347722375182147
v 0.1692560747270714 1.462469161320925 1.31255842301221
v 0.1778917194294757 1.484239256969657 1.347722375182147
v 0.1466806373480173 1.484239256969657 1.323429809716221
v 0.1343033820254738 1.462469161320925 1.291139384938059
v 0.1466806373480173 1.484239256969657 1.323429809716221
v 0.1118968089661819 1.484239256969657 1.304605761661998
v 0.09643033937635667 1.462469161320925 1.275451851223227
v 0.1118968089661819 1.484239256969657 1.304605761661998
v 0.07448905411078086 1.484239256969657 1.29176364415815
v 0.05656950250294832 1.462469161320925 1.265882111845396
v 0.07448905411078086 1.484239256969657 1.29176364415815
v 0.03547774610023966 1.484239256969657 1.285253808885503
v 0.01570238293667811 1.462469161320925 1.262665810749892
v -0.004072980226883648 1.484239256969657 1.285253808885503
v -0.02516473662959232 1.462469161320925 1.265882111845396
v -0.04308428823742485 1.484239256969657 1.29176364415815
v -0.06502557350300045 1.462469161320925 1.275451851223227
v -0.08049204309282568 1.484239256969657 1.304605761661998
v -0.1028986161521176 1.462469161320925 1.291139384938059
v -0.1152758714746613 1.484239256969657 1.323429809716221
v -0.1378513088537154 1.462469161320925 1.31255842301221
v -0.1464869535561197 1.484239256969657 1.347722375182147
v -0.1690230165966443 1.462469161320925 1.339181559001353
v -0.1732739295624018 1.484239256969657 1.376820789914675
v -0.195646152585787 1.462469161320925 1.370353266744282
v -0.1949061267895612 1.484239256969657 1.409931338668893
v -0.2170651906599374 1.462469161320925 1.405305959445879
v -0.2107934699607647 1.484239256969657 1.446150835573214
v -0.2327527243747701 1.462469161320925 1.443179002094996
v -0.2205026025940061 1.484239256969657 1.484491317434887
vn 0 1 0
vn 0 1 0
vn 0 1 0
vn 0 1 0
vn 0 1 0
vn 0 1 0
vn 0 1 0
vn 0 1 0
vn 0 1 0
vn 0 1 0
vn 0 1 0
vn 0 1 0
vn 0 1 0
vn 0 1 0
vn 0 1 0
vn 0 1 0
vn 0 1 0
vn 0 1 0
vn 0 1 0
vn 0 1 0
vn 0 1 0
vn 0 1 0
vn 0 1 0
vn 0 1 0
vn 0 1 0
vn 0 1 0
vn 0 1 0
vn 0 1 0
vn 0 1 0
vn 0 1 0
vn 0 1 0
vn 0 1 0
vn 0 1 0
vn 0 1 0
vn 0 1 0
vn 0 1 0
vn 0 1 0
vn 0 1 0
vn -0.7009856700897217 0.7070376873016357 -0.09336364269256592
vn -0.7071067690849304 0.7071067690849304 0
vn -0.7057302594184876 0.7084806561470032 0
vn -0.7009856700897217 0.7070376873016357 0.09336364269256592
vn -0.6928856372833252 0.7087802290916443 0.1324388831853867
vn -0.6778914332389832 0.7062879204750061 0.2040112614631653
vn -0.6615681648254395 0.7095444798469544 0.2426400929689407
vn -0.6373715996742249 0.7056127786636353 0.3096257150173187
vn -0.6129741072654724 0.7102007269859314 0.3462336361408234
vn -0.5804462432861328 0.7050173282623291 0.407471090555191
vn -0.5484002828598023 0.7107541561126709 0.4405515491962433
vn -0.5085638165473938 0.7045062780380249 0.4950088560581207
vn -0.4695501625537872 0.7112088799476624 0.5231677889823914
vn -0.423565000295639 0.7040827870368958 0.5699650049209595
vn -0.3784898817539215 0.7115684151649475 0.5919592976570129
vn -0.3276338279247284 0.7037503719329834 0.6303899884223938
vn -0.2775955200195313 0.7118358612060547 0.6451592445373535
vn -0.2232417166233063 0.7035112380981445 0.6747111082077026
vn -0.1694929003715515 0.7120127081871033 0.6814029812812805
vn -0.1130818501114845 0.7033668756484985 0.701774537563324
vn -0.05699054151773453 0.7121008038520813 0.6997603178024292
vn 0 0.7033185958862305 0.7108747959136963
vn 0.05699054524302483 0.7121008038520813 0.699760377407074
vn 0.1130818575620651 0.7033668756484985 0.701774537563324
vn 0.1694929003715515 0.7120127677917481 0.6814029216766357
vn 0.2232417166233063 0.7035112380981445 0.6747111082077026
vn 0.2775955200195313 0.7118358612060547 0.6451592445373535
vn 0.327633798122406 0.7037503719329834 0.6303899884223938
vn 0.3784898817539215 0.7115684151649475 0.5919592976570129
vn 0.4235650599002838 0.7040827870368958 0.5699650049209595
vn 0.4695501327514648 0.7112088799476624 0.5231678485870361
vn 0.5085638165473938 0.7045062780380249 0.4950088560581207
vn 0.548400342464447 0.7107540965080261 0.4405515193939209
vn 0.5804462432861328 0.7050173282623291 0.407471090555191
vn 0.6129740476608276 0.7102007269859314 0.3462336659431458
vn 0.6373715996742249 0.7056127786636353 0.3096257150173187
vn 0.6615681648254395 0.7095444798469544 0.2426400929689407
vn 0.6778914332389832 0.7062879204750061 0.2040112614631653
vn 0.6928856372833252 0.7087802290916443 0.1324388831853867
vn 0.6980844140052795 0.7071635723114014 0.1122400909662247
vn 0.7031541466712952 0.7086462378501892 0.05826489627361298
vn 0.706055760383606 0.7078890800476074 -0.0194490347057581
vn 0.7060143947601318 0.7060143947601318 0.05556434392929077
vn 0.7071067690849304 0.7071067690849304 0
vn 0.7009856700897217 0.7070376873016357 -0.09336364269256592
vn 0.6928856372833252 0.7087802290916443 -0.1324388831853867
vn 0.6778914332389832 0.7062879204750061 -0.2040112614631653
vn 0.6615681648254395 0.7095444798469544 -0.2426400929689407
vn 0.6373715996742249 0.7056127786636353 -0.3096257150173187
vn 0.6129741072654724 0.7102007269859314 -0.3462336361408234
vn 0.5804462432861328 0.7050173282623291 -0.407471090555191
vn 0.5655593276023865 0.7072315812110901 -0.4242241382598877
vn 0.5085638165473938 0.7045062780380249 -0.4950088560581207
vn 0.5131781101226807 0.7165706753730774 -0.4724136888980866
vn 0.4900906682014465 0.7072355151176453 -0.5095380544662476
vn 0.423565000295639 0.7040827870368958 -0.5699650049209595
vn 0.4276330769062042 0.7178192138671875 -0.5494229197502136
vn 0.4019265472888947 0.7072359323501587 -0.5816118717193604
vn 0.3276338279247284 0.7037503719329834 -0.6303899884223938
vn 0.330893337726593 0.7187859416007996 -0.6114379167556763
vn 0.3033562004566193 0.7072365283966065 -0.6385855674743652
vn 0.2232417166233063 0.7035112380981445 -0.6747111082077026
vn 0.2255104035139084 0.7194738984107971 -0.6568883657455444
vn 0.1969387382268906 0.707238495349884 -0.6789910197257996
vn 0.1130818501114845 0.7033668756484985 -0.701774537563324
vn 0.1142439097166061 0.719885528087616 -0.6846262812614441
vn 0.05699054151773453 0.7121008038520813 -0.6997603178024292
vn 0 0.7033185958862305 -0.7108747959136963
vn -0.05699054524302483 0.7121008038520813 -0.699760377407074
vn -0.1130818575620651 0.7033668756484985 -0.701774537563324
vn -0.1694929003715515 0.7120127677917481 -0.6814029216766357
vn -0.2232417166233063 0.7035112380981445 -0.6747111082077026
vn -0.2775955200195313 0.7118358612060547 -0.6451592445373535
vn -0.327633798122406 0.7037503719329834 -0.6303899884223938
vn -0.3784898817539215 0.7115684151649475 -0.5919592976570129
vn -0.4235650599002838 0.7040827870368958 -0.5699650049209595
vn -0.4695501327514648 0.7112088799476624 -0.5231678485870361
vn -0.5085638165473938 0.7045062780380249 -0.4950088560581207
vn -0.548400342464447 0.7107540965080261 -0.4405515193939209
vn -0.5804462432861328 0.7050173282623291 -0.407471090555191
vn -0.6129740476608276 0.7102007269859314 -0.3462336659431458
vn -0.6373715996742249 0.7056127786636353 -0.3096257150173187
vn -0.6615681648254395 0.7095444798469544 -0.2426400929689407
vn -0.6778914332389832 0.7062879204750061 -0.2040112614631653
vn -0.6928856372833252 0.7087802290916443 -0.1324388831853867
f 1//1 2//2 3//3
f 3//3 2//2 4//4
f 3//3 4//4 5//5
f 5//5 4//4 6//6
f 5//5 6//6 7//7
f 7//7 6//6 8//8
f 7//7 8//8 9//9
f 9//9 8//8 10//10
f 9//9 10//10 11//11
f 11//11 10//10 12//12
f 11//11 12//12 13//13
f 13//13 12//12 14//14
f 13//13 14//14 15//15
f 15//15 14//14 16//16
f 15//15 16//16 17//17
f 17//17 16//16 18//18
f 17//17 18//18 19//19
f 19//19 18//18 20//20
f 19//19 20//20 21//21
f 21//21 20//20 22//22
f 2//2 1//1 23//23
f 23//23 1//1 24//24
f 23//23 24//24 25//25
f 25//25 24//24 26//26
f 25//25 26//26 27//27
f 27//27 26//26 28//28
f 27//27 28//28 29//29
f 29//29 28//28 30//30
f 29//29 30//30 31//31
f 31//31 30//30 32//32
f 31//31 32//32 33//33
f 33//33 32//32 34//34
f 33//33 34//34 35//35
f 35//35 34//34 36//36
f 35//35 36//36 37//37
f 37//37 36//36 38//38
f 39//39 40//40 41//41
f 41//41 40//40 42//42
f 41//41 42//42 43//43
f 43//43 42//42 44//44
f 43//43 44//44 45//45
f 45//45 44//44 46//46
f 45//45 46//46 47//47
f 47//47 46//46 48//48
f 47//47 48//48 49//49
f 49//49 48//48 50//50
f 49//49 50//50 51//51
f 51//51 50//50 52//52
f 51//51 52//52 53//53
f 53//53 52//52 54//54
f 53//53 54//54 55//55
f 55//55 54//54 56//56
f 55//55 56//56 57//57
f 57//57 56//56 58//58
f 57//57 58//58 59//59
f 59//59 58//58 60//60
f 59//59 60//60 61//61
f 61//61 60//60 62//62
f 61//61 62//62 63//63
f 63//63 62//62 64//64
f 63//63 64//64 65//65
f 65//65 64//64 66//66
f 65//65 66//66 67//67
f 67//67 66//66 68//68
f 67//67 68//68 69//69
f 69//69 68//68 70//70
f 69//69 70//70 71//71
f 71//71 70//70 72//72
f 71//71 72//72 73//73
f 73//73 72//72 74//74
f 73//73 74//74 75//75
f 75//75 74//74 76//76
f 75//75 76//76 77//77
f 77//77 76//76 78//78
f 77//77 78//78 79//79
f 80//80 81//81 82//82
f 80//80 82//82 83//83
f 80//80 83//83 84//84
f 84//84 83//83 85//85
f 84//84 85//85 86//86
f 86//86 85//85 87//87
f 86//86 87//87 88//88
f 88//88 87//87 89//89
f 88//88 89//89 90//90
f 90//90 89//89 91//91
f 92//92 91//91 93//93
f 93//93 91//91 94//94
f 95//95 94//94 96//96
f 96//96 94//94 97//97
f 98//98 97//97 99//99
f 99//99 97//97 100//100
f 101//101 100//100 102//102
f 102//102 100//100 103//103
f 104//104 103//103 105//105
f 105//105 103//103 106//106
f 105//105 106//106 107//107
f 107//107 106//106 108//108
f 107//107 108//108 109//109
f 109//109 108//108 110//110
f 109//109 110//110 111//111
f 111//111 110//110 112//112
f 111//111 112//112 113//113
f 113//113 112//112 114//114
f 113//113 114//114 115//115
f 115//115 114//114 116//116
f 115//115 116//116 117//117
f 117//117 116//116 118//118
f 117//117 118//118 119//119
f 119//119 118//118 120//120
f 119//119 120//120 121//121
f 121//121 120//120 122//122
f 121//121 122//122 123//123
f 123//123 122//122 39//39
f 123//123 39//39 41//41
